<?xml version="1.0" encoding="utf-8"?>
<!-- Generator: Adobe Illustrator 17.0.0, SVG Export Plug-In . SVG Version: 6.00 Build 0)  -->
<!DOCTYPE svg PUBLIC "-//W3C//DTD SVG 1.1//EN" "http://www.w3.org/Graphics/SVG/1.1/DTD/svg11.dtd">
<svg version="1.1" id="图层_1" xmlns="http://www.w3.org/2000/svg" xmlns:xlink="http://www.w3.org/1999/xlink" x="0px" y="0px"
	 width="226.77px" height="170.08px" viewBox="0 0 226.77 170.08" enable-background="new 0 0 226.77 170.08" xml:space="preserve">
<g>
	<path fill="#323232" d="M36.723,81.658c-2.794-1.8-6.519-0.995-8.319,1.8l-13.281,21.338c-1.8,2.794-0.995,6.52,1.8,8.32
		s6.52,0.994,8.32-1.801l13.281-21.337C40.324,87.184,39.519,83.46,36.723,81.658z"/>
	<path fill="#323232" d="M75.923,81.658c2.794-1.8,6.519-0.995,8.319,1.8l13.282,21.338c1.8,2.794,0.995,6.52-1.8,8.32
		c-2.794,1.8-6.52,0.994-8.32-1.801L74.123,89.978C72.322,87.184,73.128,83.46,75.923,81.658z"/>
	<path fill="#323232" d="M142.642,42.442h-12.836l0.337-0.321c2.352-2.351,2.352-6.161,0-8.513c-2.351-2.351-6.161-2.351-8.512,0
		l-10.07,9.603c-0.142,0.143-0.248,0.305-0.373,0.457c-1.449,1.099-2.39,2.834-2.39,4.793c0,3.325,2.695,6.021,6.019,6.021h27.825
		c3.324,0,6.019-2.695,6.019-6.021C148.66,45.137,145.966,42.442,142.642,42.442z"/>
	<path fill="#323232" d="M204.975,54.481c0.282,0,0.558-0.026,0.829-0.063c0.001,0,0.003,0,0.004,0c3.325,0,6.02-2.695,6.02-6.02
		V37.785c0-3.324-2.694-6.02-6.02-6.02c-3.324,0-6.018,2.695-6.018,6.02v4.657h-9.709v-4.657c0-3.324-2.694-6.02-6.02-6.02
		c-3.324,0-6.018,2.695-6.018,6.02v4.657H161.15c-3.324,0-6.02,2.694-6.02,6.018c0,3.325,2.695,6.021,6.02,6.021h16.893v7h-16.059
		h-0.001h-0.001c-2.268,0-4.241,1.257-5.267,3.11c-0.008,0.014-0.017,0.025-0.024,0.039c-0.038,0.07-0.069,0.146-0.104,0.217
		c-0.395,0.802-0.622,1.699-0.622,2.652l0,0c0,0.001,0,0.001,0,0.001v56.366c0,3.324,2.693,6.02,6.018,6.02
		c3.325,0,6.02-2.695,6.02-6.02v-6.276h10.042v6.276c0,3.324,2.693,6.02,6.018,6.02c3.325,0,6.02-2.695,6.02-6.02v-6.276h9.709
		v6.276c0,3.324,2.693,6.02,6.018,6.02c3.325,0,6.02-2.695,6.02-6.02V67.501c0,0,0,0,0-0.001l0,0c0-3.324-2.694-6.019-6.018-6.019
		h-15.728v-7H204.975z M168.002,73.521h10.042v10.157h-10.042V73.521z M168.002,105.552v-9.835h10.042v9.835H168.002z
		 M190.081,105.552v-9.835h9.709v9.835H190.081z M199.79,73.521v10.157h-9.709V73.521H199.79z"/>
	<path fill="#323232" d="M142.642,73.521c3.324,0,6.019-2.695,6.019-6.021c0-3.324-2.694-6.019-6.019-6.019h-27.825
		c-3.324,0-6.019,2.694-6.019,6.019c0,3.325,2.695,6.021,6.019,6.021h7.894v10.157h-7.894c-3.324,0-6.019,2.694-6.019,6.019
		c0,3.325,2.695,6.021,6.019,6.021h7.894v20.894c-9.241,4.112-18.278,6.583-29.163,6.583c-10.325,0-19.195-2.054-28.317-5.74
		c0-0.035,0.005-0.069,0.005-0.104V75.521h23.874c3.324,0,6.019-2.695,6.019-6.02c0-3.324-2.695-6.02-6.019-6.02H65.235v-5.499
		c0-3.324-2.695-6.02-6.02-6.02c-3.324,0-6.019,2.695-6.019,6.02v5.499H30.304V46.814h58.806c3.324,0,6.019-2.695,6.019-6.021
		c0-3.324-2.695-6.019-6.019-6.019H24.285c-3.324,0-6.019,2.694-6.019,6.019v28.374c0,0.057,0.007,0.11,0.008,0.166
		c-0.001,0.057-0.008,0.11-0.008,0.167c0,3.324,2.695,6.02,6.019,6.02h28.913v35.87c-2.018-1.232-3.99-2.541-5.899-3.939
		l-0.001,0.002c-1.041-0.758-2.318-1.209-3.704-1.209c-3.484,0-6.31,2.824-6.31,6.31c0,1.881,0.827,3.564,2.132,4.721l-0.047,0.059
		c15.751,11.521,33.168,18.327,54.179,18.327c20.463,0,36.598-6.762,52.13-17.75c1.779-1.533,2.983-3.346,2.983-5.356
		c0-3.485-2.824-6.31-6.31-6.31c-1.636,0-3.122,0.628-4.243,1.648l-0.004-0.005c-1.103,0.763-2.225,1.496-3.355,2.216V95.717h7.894
		c3.324,0,6.019-2.695,6.019-6.021c0-3.324-2.694-6.019-6.019-6.019h-7.894V73.521H142.642z"/>
</g>
</svg>
