<?xml version="1.0" encoding="utf-8"?>
<!-- Generator: Adobe Illustrator 17.0.0, SVG Export Plug-In . SVG Version: 6.00 Build 0)  -->
<!DOCTYPE svg PUBLIC "-//W3C//DTD SVG 1.1//EN" "http://www.w3.org/Graphics/SVG/1.1/DTD/svg11.dtd">
<svg version="1.1" id="图层_1" xmlns="http://www.w3.org/2000/svg" xmlns:xlink="http://www.w3.org/1999/xlink" x="0px" y="0px"
	 width="30.26px" height="32.019px" viewBox="0 0 30.26 32.019" enable-background="new 0 0 30.26 32.019" xml:space="preserve">
<path fill="#272636" d="M13.031,23.914c-5.64,0-10.229-4.588-10.229-10.229S7.391,3.457,13.031,3.457S23.26,8.046,23.26,13.686
	S18.671,23.914,13.031,23.914z M13.031,6.457c-3.986,0-7.229,3.243-7.229,7.229s3.243,7.229,7.229,7.229
	c3.986,0,7.229-3.243,7.229-7.229S17.017,6.457,13.031,6.457z"/>
<path fill="#272636" d="M26.407,28.795c-0.502,0-1.004-0.188-1.393-0.564l-6.471-6.279c-0.793-0.77-0.812-2.036-0.043-2.828
	c0.771-0.793,2.037-0.812,2.828-0.043l6.471,6.279c0.793,0.77,0.812,2.036,0.043,2.828C27.45,28.592,26.928,28.795,26.407,28.795z"
	/>
</svg>
