<?xml version="1.0" encoding="utf-8"?>
<!-- Generator: Adobe Illustrator 17.0.0, SVG Export Plug-In . SVG Version: 6.00 Build 0)  -->
<!DOCTYPE svg PUBLIC "-//W3C//DTD SVG 1.1//EN" "http://www.w3.org/Graphics/SVG/1.1/DTD/svg11.dtd">
<svg version="1.1" id="图形" xmlns="http://www.w3.org/2000/svg" xmlns:xlink="http://www.w3.org/1999/xlink" x="0px" y="0px"
	 width="1024px" height="1024px" viewBox="0 0 1024 1024" enable-background="new 0 0 1024 1024" xml:space="preserve">
<path fill="#272636" d="M511.998,63.604c-179.313,0-324.673,145.362-324.673,324.674c0,34.947,5.543,68.594,15.761,100.137
	c7.45,22.999,17.393,44.87,29.518,65.3L511.998,864.5l279.393-310.784c12.125-20.43,22.068-42.302,29.518-65.302
	c10.218-31.542,15.762-65.19,15.762-100.137C836.673,208.965,691.311,63.604,511.998,63.604z M510.975,540.07
	c-85.91,0-155.802-69.893-155.802-155.802s69.893-155.802,155.802-155.802c85.911,0,155.803,69.893,155.803,155.802
	S596.887,540.07,510.975,540.07z"/>
</svg>
