<?xml version="1.0" encoding="utf-8"?>
<!-- Generator: Adobe Illustrator 17.0.0, SVG Export Plug-In . SVG Version: 6.00 Build 0)  -->
<!DOCTYPE svg PUBLIC "-//W3C//DTD SVG 1.1//EN" "http://www.w3.org/Graphics/SVG/1.1/DTD/svg11.dtd">
<svg version="1.1" id="图层_1" xmlns="http://www.w3.org/2000/svg" xmlns:xlink="http://www.w3.org/1999/xlink" x="0px" y="0px"
	 width="45.354px" height="45.354px" viewBox="-0.099 -0.662 45.354 45.354" enable-background="new -0.099 -0.662 45.354 45.354"
	 xml:space="preserve">
<g>
	<path fill="#272636" d="M25.543,39.081l-7.582-6.356V22.155L7.99,12.334c-0.558-0.584-0.866-1.352-0.866-2.162
		c0-1.841,1.138-3.127,2.767-3.127h24.045c1.229,0,2.664,0.819,2.664,3.127c0,0.805-0.305,1.569-0.858,2.152l-0.091,0.103
		L25.528,22.497L25.543,39.081z M20.461,31.558l2.582,2.165V22.462c0-0.646,0.262-1.277,0.719-1.734l10.077-10.025
		c0.032-0.038,0.066-0.076,0.103-0.113c0.098-0.104,0.157-0.252,0.157-0.416c0-0.412-0.086-0.608-0.116-0.645L9.89,9.545
		c-0.22,0-0.267,0.341-0.267,0.627c0,0.165,0.06,0.314,0.173,0.433c0.052,0.053,0.101,0.11,0.147,0.169l9.792,9.639
		c0.47,0.472,0.725,1.087,0.725,1.741V31.558z"/>
</g>
</svg>
