<?xml version="1.0" encoding="utf-8"?>
<!-- Generator: Adobe Illustrator 17.0.0, SVG Export Plug-In . SVG Version: 6.00 Build 0)  -->
<!DOCTYPE svg PUBLIC "-//W3C//DTD SVG 1.1//EN" "http://www.w3.org/Graphics/SVG/1.1/DTD/svg11.dtd">
<svg version="1.1" id="图层_1" xmlns="http://www.w3.org/2000/svg" xmlns:xlink="http://www.w3.org/1999/xlink" x="0px" y="0px"
	 width="46.51px" height="45.354px" viewBox="-0.761 0 46.51 45.354" enable-background="new -0.761 0 46.51 45.354"
	 xml:space="preserve">
<path fill="#893B3B" d="M37.778,41.019c-1.868,0-3.402-1.412-3.568-3.285c-0.012-0.129-0.121-0.229-0.25-0.229H10.893
	c-0.131,0-0.238,0.099-0.25,0.229c-0.166,1.873-1.7,3.285-3.568,3.285c-1.914,0-3.487-1.504-3.582-3.424
	c-0.005-0.112-0.085-0.208-0.195-0.233c-2.331-0.54-3.835-2.608-3.653-5.028l0.505-6.726c0.169-2.256,1.854-4.296,4.099-4.961
	c0.092-0.028,0.164-0.112,0.176-0.213l0.017-0.201c0.006-0.11,0.017-0.205,0.035-0.292L6.765,9.188
	c0.653-3.069,3.738-5.566,6.876-5.566h17.572c3.139,0,6.224,2.497,6.877,5.566L40.41,20.21c0.006,0.099,0.01,0.154,0.018,0.21
	c0.013,0.113,0.084,0.197,0.181,0.226c2.241,0.667,3.926,2.707,4.094,4.959l0.504,6.726c0.184,2.421-1.318,4.49-3.653,5.031
	c-0.107,0.025-0.188,0.121-0.193,0.234C41.263,39.515,39.69,41.019,37.778,41.019z M10.893,35.005h23.066
	c1.438,0,2.616,1.079,2.74,2.51c0.052,0.581,0.505,1.004,1.078,1.004c0.579,0,1.056-0.46,1.085-1.048
	c0.062-1.222,0.936-2.268,2.124-2.544c1.122-0.26,1.815-1.228,1.727-2.407l-0.504-6.727c-0.092-1.223-1.066-2.38-2.316-2.751
	c-1.055-0.316-1.818-1.225-1.947-2.316c-0.013-0.1-0.022-0.213-0.029-0.324L35.645,9.708c-0.407-1.91-2.478-3.586-4.432-3.586
	H13.641c-1.954,0-4.024,1.676-4.431,3.587l-2.3,11.002c-0.135,1.11-0.897,2.016-1.945,2.331c-1.256,0.372-2.23,1.529-2.321,2.753
	l-0.505,6.726c-0.089,1.18,0.605,2.146,1.728,2.406c1.193,0.28,2.065,1.327,2.124,2.546c0.029,0.586,0.505,1.046,1.085,1.046
	c0.563,0,1.027-0.433,1.078-1.006C8.28,36.083,9.458,35.005,10.893,35.005z M10.103,33.825c-2.801,0-5.079-2.278-5.079-5.079
	s2.278-5.079,5.079-5.079s5.079,2.278,5.079,5.079S12.904,33.825,10.103,33.825z M10.103,26.167c-1.422,0-2.579,1.157-2.579,2.579
	s1.157,2.579,2.579,2.579c1.422,0,2.579-1.157,2.579-2.579S11.525,26.167,10.103,26.167z M34.5,33.398
	c-2.801,0-5.079-2.278-5.079-5.079s2.278-5.079,5.079-5.079s5.079,2.278,5.079,5.079S37.3,33.398,34.5,33.398z M34.5,25.74
	c-1.422,0-2.579,1.157-2.579,2.579s1.157,2.579,2.579,2.579s2.579-1.157,2.579-2.579S35.921,25.74,34.5,25.74z"/>
</svg>
