<?xml version="1.0" encoding="utf-8"?>
<!-- Generator: Adobe Illustrator 17.0.0, SVG Export Plug-In . SVG Version: 6.00 Build 0)  -->
<!DOCTYPE svg PUBLIC "-//W3C//DTD SVG 1.1//EN" "http://www.w3.org/Graphics/SVG/1.1/DTD/svg11.dtd">
<svg version="1.1" id="图层_1" xmlns="http://www.w3.org/2000/svg" xmlns:xlink="http://www.w3.org/1999/xlink" x="0px" y="0px"
	 width="43.833px" height="45.354px" viewBox="0 0 43.833 45.354" enable-background="new 0 0 43.833 45.354" xml:space="preserve">
<path fill="#272636" d="M10.738,44.399c-2.195,0-3.983-1.767-3.985-3.938l1.143-17.732c-3.471-1.489-5.864-5.536-5.864-10.001
	c0-5.855,3.962-10.619,8.833-10.619c4.87,0,8.833,4.764,8.833,10.619c0,4.604-2.49,8.685-6.105,10.093l1.127,17.514
	C14.722,42.611,12.935,44.399,10.738,44.399z M10.865,4.609c-3.492,0-6.333,3.642-6.333,8.119c0,3.595,1.891,6.804,4.598,7.803
	l1.312,0.487l-0.041,1.693L9.25,40.541c0.003,0.699,0.684,1.358,1.488,1.358c0.818,0,1.484-0.666,1.484-1.484l-1.159-18.466
	l-0.008-0.913l1.361-0.448c2.816-0.924,4.782-4.156,4.782-7.86C17.198,8.251,14.357,4.609,10.865,4.609z"/>
<path fill="#272636" d="M32.81,44.399c-2.196,0-3.984-1.767-3.986-3.938l1.153-17.86c-3.327-1.186-5.617-4.401-5.617-7.96V4.053h2.5
	v10.588c0,2.604,1.74,4.946,4.232,5.696l1.456,0.439l-0.062,1.518c-0.007,0.167-0.011,0.275-0.011,0.387l-1.153,17.86
	c0.003,0.699,0.684,1.358,1.488,1.358c0.818,0,1.484-0.666,1.484-1.484L33.15,22.808c-0.004-0.216-0.008-0.317-0.012-0.418
	l-0.059-1.616l1.449-0.436c2.492-0.75,4.232-3.092,4.232-5.695V4.053h2.5v10.589c0,3.558-2.289,6.772-5.615,7.959
	c0,0.036,0.001,0.074,0.001,0.115l1.145,17.618C36.794,42.611,35.007,44.399,32.81,44.399z"/>
<polygon fill="#272636" points="31.489,15.251 28.959,15.251 28.959,4.053 31.459,4.053 "/>
<polygon fill="#272636" points="36.197,15.251 33.667,15.251 33.667,4.053 36.167,4.053 "/>
</svg>
