<?xml version="1.0" encoding="utf-8"?>
<!-- Generator: Adobe Illustrator 17.0.0, SVG Export Plug-In . SVG Version: 6.00 Build 0)  -->
<!DOCTYPE svg PUBLIC "-//W3C//DTD SVG 1.1//EN" "http://www.w3.org/Graphics/SVG/1.1/DTD/svg11.dtd">
<svg version="1.1" id="图层_1" xmlns="http://www.w3.org/2000/svg" xmlns:xlink="http://www.w3.org/1999/xlink" x="0px" y="0px"
	 width="38.833px" height="33.581px" viewBox="0 0 38.833 33.581" enable-background="new 0 0 38.833 33.581" xml:space="preserve">
<path fill="#272636" d="M36.74,32.288c-0.225,0-0.452-0.076-0.639-0.231l-3.404-2.828c0,0-0.001,0-0.001-0.001
	c-1.521,1.524-3.611,2.468-5.906,2.468c-4.629,0-8.396-3.767-8.396-8.396s3.767-8.396,8.396-8.396s8.396,3.766,8.396,8.396
	c-0.017,1.595-0.474,3.087-1.253,4.357c0.014,0.01,0.028,0.021,0.042,0.033l3.404,2.828c0.425,0.353,0.483,0.983,0.13,1.408
	C37.312,32.165,37.027,32.288,36.74,32.288z M26.791,16.905c-3.527,0-6.396,2.869-6.396,6.396c0,3.527,2.869,6.396,6.396,6.396
	c3.489,0,6.359-2.874,6.396-6.407C33.187,19.774,30.317,16.905,26.791,16.905z M14.748,27.469H2.328C1.066,27.469,0,26.403,0,25.142
	V2.328C0,1.066,1.066,0,2.328,0h23.126c1.262,0,2.328,1.066,2.328,2.328v7.997c0,0.552-0.448,1-1,1s-1-0.448-1-1V2.328
	c0-0.15-0.178-0.328-0.328-0.328H2.328C2.178,2,2,2.178,2,2.328v22.813c0,0.15,0.178,0.328,0.328,0.328h12.42c0.552,0,1,0.448,1,1
	S15.3,27.469,14.748,27.469z"/>
</svg>
