<?xml version="1.0" encoding="utf-8"?>
<!-- Generator: Adobe Illustrator 17.0.0, SVG Export Plug-In . SVG Version: 6.00 Build 0)  -->
<!DOCTYPE svg PUBLIC "-//W3C//DTD SVG 1.1//EN" "http://www.w3.org/Graphics/SVG/1.1/DTD/svg11.dtd">
<svg version="1.1" id="图层_1" xmlns="http://www.w3.org/2000/svg" xmlns:xlink="http://www.w3.org/1999/xlink" x="0px" y="0px"
	 width="49.01px" height="47.344px" viewBox="-1.927 -1.656 49.01 47.344" enable-background="new -1.927 -1.656 49.01 47.344"
	 xml:space="preserve">
<path fill="#272636" d="M6.294,44.118C5.439,44.119,4.861,43.54,4.67,43.35l-5.172-5.173c-0.588-0.589-0.675-1.271-0.675-1.627
	c0-0.273,0.049-0.964,0.504-1.461l0.157-0.146l15.537-12.011c0.283-0.243,0.276-0.362,0.268-0.514l-0.009-0.155l0.029-0.153
	c0.107-0.557,0.631-1.454,0.789-1.715l0.131-0.217l0.205-0.148c1.023-0.742,2.042-0.659,2.949,0.24l1.125,1.125l0.621-0.621
	c0.137-0.138,0.137-0.37,0-0.508L9.615,8.411l7.587-7.582l2.487,2.621l3.755-3.755c0.391-0.402,0.9-0.612,1.501-0.612
	c0.155,0,0.333,0.013,0.533,0.052l0.373,0.073L46.47,19.831c0.292,0.288,0.456,0.688,0.458,1.122
	c0.001,0.643-0.351,1.223-0.681,1.552l-6.921,6.918c-0.428,0.426-0.986,0.668-1.536,0.668h-0.515L16.311,9.29
	c-0.68-0.682-0.58-1.882,0.218-2.68l1.392-1.393l-0.766-0.807l-4.029,4.026l9.783,10.073c1.102,1.103,1.102,2.916-0.013,4.03
	l-0.621,0.621l1.065,1.065c0.433,0.433,0.671,1.009,0.671,1.622c0,0.456-0.133,0.898-0.383,1.277l-0.166,0.251l-0.262,0.147
	c-0.51,0.288-1.073,0.554-1.25,0.637l-0.339,0.16l-0.414-0.033c-0.295-0.045-0.57,0.076-0.771,0.323L7.984,43.275
	c-0.254,0.262-0.83,0.843-1.686,0.844C6.297,44.118,6.296,44.118,6.294,44.118z M1.445,36.588l4.836,4.836l12.222-14.409
	c0.651-0.803,1.601-1.285,2.634-1.234c0.047-0.023,0.097-0.048,0.149-0.073l-3.392-3.392c-0.044,0.089-0.079,0.166-0.104,0.223
	c-0.018,0.903-0.411,1.67-1.195,2.336L1.445,36.588z M18.617,8.057l19.346,19.194l6.197-6.195L24.891,1.783L18.617,8.057z"/>
</svg>
