<?xml version="1.0" encoding="utf-8"?>
<!-- Generator: Adobe Illustrator 17.0.0, SVG Export Plug-In . SVG Version: 6.00 Build 0)  -->
<!DOCTYPE svg PUBLIC "-//W3C//DTD SVG 1.1//EN" "http://www.w3.org/Graphics/SVG/1.1/DTD/svg11.dtd">
<svg version="1.1" id="图层_1" xmlns="http://www.w3.org/2000/svg" xmlns:xlink="http://www.w3.org/1999/xlink" x="0px" y="0px"
	 width="43.833px" height="45.354px" viewBox="0 0 43.833 45.354" enable-background="new 0 0 43.833 45.354" xml:space="preserve">
<g>
	<path fill="#272636" d="M41.939,7.26H7.97L7.426,4.695H1.64c-0.69,0-1.25,0.56-1.25,1.25s0.56,1.25,1.25,1.25h3.761l5.471,25.799
		h24.345c0.69,0,1.25-0.56,1.25-1.25c0-0.69-0.56-1.25-1.25-1.25H12.897l-1.111-5.239l25.467-0.43L41.939,7.26z M25.525,9.76h5.438
		v12.671l-5.438,0.092V9.76z M23.025,22.565l-5.492,0.093V9.76h5.492V22.565z M8.5,9.76h6.532v12.94l-3.775,0.064L8.5,9.76z
		 M33.463,22.389V9.76h5.222l-3.36,12.598L33.463,22.389z"/>
	<path fill="#272636" d="M14.344,35.788c-2.143,0-3.887,1.743-3.887,3.886s1.744,3.887,3.887,3.887s3.887-1.744,3.887-3.887
		S16.487,35.788,14.344,35.788z M14.344,41.061c-0.765,0-1.387-0.622-1.387-1.387c0-0.764,0.622-1.386,1.387-1.386
		s1.387,0.622,1.387,1.386C15.731,40.438,15.109,41.061,14.344,41.061z"/>
	<path fill="#272636" d="M32.427,35.788c-2.143,0-3.887,1.743-3.887,3.886s1.744,3.887,3.887,3.887s3.887-1.744,3.887-3.887
		S34.57,35.788,32.427,35.788z M32.427,41.061c-0.765,0-1.387-0.622-1.387-1.387c0-0.764,0.622-1.386,1.387-1.386
		s1.387,0.622,1.387,1.386C33.814,40.438,33.192,41.061,32.427,41.061z"/>
</g>
</svg>
