<?xml version="1.0" encoding="utf-8"?>
<!-- Generator: Adobe Illustrator 17.0.0, SVG Export Plug-In . SVG Version: 6.00 Build 0)  -->
<!DOCTYPE svg PUBLIC "-//W3C//DTD SVG 1.1//EN" "http://www.w3.org/Graphics/SVG/1.1/DTD/svg11.dtd">
<svg version="1.1" id="图层_1" xmlns="http://www.w3.org/2000/svg" xmlns:xlink="http://www.w3.org/1999/xlink" x="0px" y="0px"
	 width="45.354px" height="45.354px" viewBox="-0.761 0 45.354 45.354" enable-background="new -0.761 0 45.354 45.354"
	 xml:space="preserve">
<path fill="#515151" d="M41.736,39.188c-0.219-1.092-0.97-2.167-1.566-2.883c1.201-1.914,1.018-4.468-0.614-6.172L26.871,16.884
	c0.299-1.04,0.469-2.135,0.469-3.27c0-6.541-5.321-11.861-11.861-11.861c-6.54,0-11.861,5.321-11.861,11.861
	c0,6.54,5.321,11.861,11.861,11.861c1.668,0,3.255-0.35,4.696-0.974l12.086,12.617c0.934,0.975,2.189,1.527,3.538,1.556
	c0.037,0.001,0.075,0.002,0.112,0.002c0.868,0,1.695-0.237,2.436-0.65c0.415,0.518,0.837,1.155,0.937,1.653
	c0.235,1.175,0,2.458-0.002,2.468l2.455,0.473C41.751,42.548,42.069,40.855,41.736,39.188z M6.118,13.614
	c0-5.162,4.199-9.361,9.361-9.361c3.116,0,5.874,1.537,7.577,3.886L10.004,21.191C7.655,19.488,6.118,16.73,6.118,13.614z
	 M12.316,22.413l11.962-11.962c0.357,0.99,0.562,2.052,0.562,3.163c0,5.162-4.2,9.361-9.361,9.361
	C14.368,22.975,13.306,22.77,12.316,22.413z M35.853,36.175c-0.681-0.015-1.314-0.294-1.786-0.785L22.41,23.219
	c1.395-1.009,2.564-2.308,3.412-3.816L37.75,31.862c0.973,1.016,0.938,2.634-0.077,3.605C37.18,35.938,36.567,36.185,35.853,36.175z
	"/>
</svg>
