<?xml version="1.0" encoding="utf-8"?>
<!-- Generator: Adobe Illustrator 17.0.0, SVG Export Plug-In . SVG Version: 6.00 Build 0)  -->
<!DOCTYPE svg PUBLIC "-//W3C//DTD SVG 1.1//EN" "http://www.w3.org/Graphics/SVG/1.1/DTD/svg11.dtd">
<svg version="1.1" id="图层_1" xmlns="http://www.w3.org/2000/svg" xmlns:xlink="http://www.w3.org/1999/xlink" x="0px" y="0px"
	 width="38.833px" height="37.062px" viewBox="0 0 38.833 37.062" enable-background="new 0 0 38.833 37.062" xml:space="preserve">
<g>
	<path fill="#272636" d="M22.934,36.331l-11.059-2.232L11.866,34.1l-0.003-0.001L2.852,35.71L3.16,23.117l4.155-0.535l0.256,1.983
		l-2.454,0.316l-0.206,8.429l5.962-1.066v-0.426l1.03,0.239l0.978-0.184l0.002,0.387L22.984,34.3l8.581-1.302l0.208-8.494
		l-2.168,0.38l-0.345-1.97l4.573-0.801l-0.309,12.61L22.934,36.331z M18.833,31.652l-1.826-1.447
		c-0.014-0.011-1.847-1.457-3.657-3.641c-0.034-0.031-0.134-0.146-0.237-0.291c-2.046-2.646-5.577-7.732-6.349-12.188
		c-0.141-0.957-0.145-1.565-0.145-1.631c-0.025-3.262,1.278-6.326,3.67-8.62c2.296-2.203,5.326-3.416,8.531-3.416
		c3.218,0,6.254,1.213,8.551,3.416c2.379,2.282,3.676,5.329,3.651,8.58c0,0.102-0.007,0.695-0.146,1.652
		c-0.726,4.207-3.857,8.954-6.357,12.201c-0.071,0.107-0.182,0.235-0.268,0.327c-1.784,2.153-3.593,3.594-3.611,3.607L18.833,31.652
		z M18.822,2.419c-2.687,0-5.225,1.016-7.146,2.859C9.684,7.188,8.599,9.733,8.62,12.447c0,0.013,0.001,0.519,0.12,1.323
		c0.695,4.014,4.038,8.802,5.969,11.297l0.027,0.037c0.037,0.053,0.074,0.097,0.104,0.128c1.72,2.071,3.39,3.391,3.406,3.404
		l0.58,0.459l0.573-0.46c0.024-0.019,1.695-1.362,3.355-3.363c0.07-0.077,0.109-0.121,0.146-0.176
		c2.398-3.117,5.351-7.566,6.003-11.343c0.12-0.826,0.121-1.324,0.121-1.345c0.021-2.703-1.058-5.232-3.036-7.129
		C24.066,3.435,21.521,2.419,18.822,2.419z M18.822,17.724c-2.096,0-3.8-1.645-3.8-3.667c0-2.022,1.705-3.667,3.8-3.667
		s3.801,1.645,3.801,3.667C22.623,16.079,20.918,17.724,18.822,17.724z M18.822,12.389c-0.993,0-1.8,0.748-1.8,1.667
		c0,0.919,0.808,1.667,1.8,1.667c0.993,0,1.801-0.748,1.801-1.667C20.623,13.137,19.815,12.389,18.822,12.389z"/>
</g>
</svg>
