<?xml version="1.0" encoding="utf-8"?>
<!-- Generator: Adobe Illustrator 17.0.0, SVG Export Plug-In . SVG Version: 6.00 Build 0)  -->
<!DOCTYPE svg PUBLIC "-//W3C//DTD SVG 1.1//EN" "http://www.w3.org/Graphics/SVG/1.1/DTD/svg11.dtd">
<svg version="1.1" id="图层_1" xmlns="http://www.w3.org/2000/svg" xmlns:xlink="http://www.w3.org/1999/xlink" x="0px" y="0px"
	 width="45.354px" height="45.354px" viewBox="-0.099 -0.662 45.354 45.354" enable-background="new -0.099 -0.662 45.354 45.354"
	 xml:space="preserve">
<path fill="#272636" d="M20.982,40.243l-1.03-1.406c-7.024-9.596-9.686-15.305-9.796-15.543l-0.065-0.097
	c-1.133-1.928-1.732-4.136-1.732-6.385c0-3.371,1.313-6.541,3.697-8.924c2.384-2.384,5.554-3.697,8.925-3.697
	c3.372,0,6.541,1.313,8.925,3.697c2.384,2.383,3.697,5.552,3.697,8.924c0,2.248-0.6,4.456-1.732,6.386l-0.079,0.118
	c-0.314,0.606-3.314,6.256-9.807,15.501L20.982,40.243z M12.219,21.883c0.082,0.119,0.153,0.244,0.212,0.374
	c0.021,0.044,2.414,5.164,8.51,13.684c5.705-8.254,8.344-13.222,8.64-13.789c0.044-0.088,0.1-0.18,0.162-0.269
	c0.89-1.535,1.359-3.287,1.359-5.071c0-2.704-1.053-5.246-2.965-7.156c-1.912-1.913-4.453-2.965-7.157-2.965
	c-2.704,0-5.245,1.053-7.157,2.965c-1.912,1.912-2.964,4.453-2.964,7.157C10.859,18.597,11.33,20.349,12.219,21.883z M20.981,24.083
	c-4.009,0-7.271-3.262-7.271-7.271s3.262-7.27,7.271-7.27s7.271,3.261,7.271,7.27S24.99,24.083,20.981,24.083z M20.981,12.042
	c-2.63,0-4.771,2.14-4.771,4.77s2.14,4.771,4.771,4.771c2.631,0,4.771-2.14,4.771-4.771S23.612,12.042,20.981,12.042z"/>
</svg>
