<?xml version="1.0" encoding="utf-8"?>
<!-- Generator: Adobe Illustrator 17.0.0, SVG Export Plug-In . SVG Version: 6.00 Build 0)  -->
<!DOCTYPE svg PUBLIC "-//W3C//DTD SVG 1.1//EN" "http://www.w3.org/Graphics/SVG/1.1/DTD/svg11.dtd">
<svg version="1.1" id="图层_1" xmlns="http://www.w3.org/2000/svg" xmlns:xlink="http://www.w3.org/1999/xlink" x="0px" y="0px"
	 width="45.354px" height="45.354px" viewBox="-0.099 -0.662 45.354 45.354" enable-background="new -0.099 -0.662 45.354 45.354"
	 xml:space="preserve">
<path fill="#272636" d="M33.527,43.996H12.322c-2.151,0-3.9-1.75-3.9-3.9V2.989c0-2.151,1.75-3.901,3.9-3.901h21.205
	c2.151,0,3.901,1.75,3.901,3.901v37.107C37.428,42.246,35.678,43.996,33.527,43.996z M12.322,1.588c-0.772,0-1.4,0.628-1.4,1.401
	v37.107c0,0.772,0.628,1.4,1.4,1.4h21.205c0.772,0,1.401-0.628,1.401-1.4V2.989c0-0.772-0.629-1.401-1.401-1.401H12.322z"/>
<path fill="#272636" d="M33.749,35.017H12.101V2.767h21.648V35.017z M14.601,32.517h16.648V5.267H14.601V32.517z"/>
<circle fill="#272636" cx="22.911" cy="38.642" r="1.665"/>
</svg>
