<?xml version="1.0" encoding="utf-8"?>
<!-- Generator: Adobe Illustrator 17.0.0, SVG Export Plug-In . SVG Version: 6.00 Build 0)  -->
<!DOCTYPE svg PUBLIC "-//W3C//DTD SVG 1.1//EN" "http://www.w3.org/Graphics/SVG/1.1/DTD/svg11.dtd">
<svg version="1.1" id="图层_1" xmlns="http://www.w3.org/2000/svg" xmlns:xlink="http://www.w3.org/1999/xlink" x="0px" y="0px"
	 width="45.354px" height="45.354px" viewBox="-0.761 0 45.354 45.354" enable-background="new -0.761 0 45.354 45.354"
	 xml:space="preserve">
<g>
	<path fill="#2D2828" d="M26.483,32.936c-0.64-1.642-2.258-2.701-4.122-2.701c-0.61,0-1.212,0.114-1.79,0.34
		c-0.499,0.195-0.934,0.474-1.323,0.794l-2.398-7.204l6.23-19.823c0.207-0.659-0.159-1.36-0.818-1.567
		c-0.66-0.208-1.361,0.158-1.567,0.817l-5.193,16.523L10.168,4.092C9.95,3.437,9.245,3.084,8.587,3.301
		C7.932,3.519,7.578,4.227,7.796,4.882l6.427,19.305l-2.227,7.086c-0.426-0.31-0.899-0.563-1.419-0.727
		c-0.483-0.152-0.982-0.229-1.482-0.229c-1.985,0-3.695,1.199-4.256,2.985L3.91,36.257c-0.355,1.13-0.211,2.334,0.405,3.393
		c0.594,1.021,1.562,1.785,2.727,2.15c0.483,0.152,0.981,0.229,1.481,0.229c1.986,0,3.696-1.199,4.257-2.984l0.929-2.956
		c0.221-0.703,0.226-1.432,0.067-2.139l1.796-5.713l2.014,6.05c0.002,0.007,0.008,0.012,0.01,0.019
		c-0.084,0.666-0.03,1.351,0.227,2.009l1.126,2.887c0.64,1.642,2.258,2.702,4.123,2.702c0.609,0,1.211-0.114,1.788-0.34
		c1.137-0.443,2.052-1.271,2.575-2.329c0.543-1.098,0.605-2.31,0.176-3.411L26.483,32.936z M11.323,35.338l-0.929,2.957
		c-0.296,0.941-1.492,1.467-2.604,1.12c-0.568-0.179-1.035-0.542-1.315-1.022c-0.258-0.443-0.322-0.936-0.181-1.387l0.928-2.955
		c0.232-0.738,0.984-1.234,1.872-1.234c0.246,0,0.492,0.039,0.733,0.114c0.568,0.179,1.035,0.542,1.315,1.022
		C11.4,34.397,11.464,34.888,11.323,35.338z M25.194,38.126c-0.247,0.498-0.688,0.893-1.243,1.108
		c-1.078,0.424-2.315-0.024-2.673-0.941l-1.126-2.887c-0.371-0.949,0.226-2.072,1.33-2.504c0.287-0.111,0.583-0.168,0.88-0.168
		c0.826,0,1.53,0.436,1.792,1.109l1.127,2.888C25.452,37.171,25.421,37.666,25.194,38.126z"/>
	<path fill="#2D2828" d="M40.783,38.627h-7.229c-0.655,0-1.188-0.59-1.188-1.314V35.7h8.231c0.69,0,1.25-0.56,1.25-1.25
		s-0.56-1.25-1.25-1.25h-8.231v-2.611h8.231c0.69,0,1.25-0.56,1.25-1.25s-0.56-1.25-1.25-1.25h-8.231v-2.612h8.231
		c0.69,0,1.25-0.56,1.25-1.25s-0.56-1.25-1.25-1.25h-8.231v-2.612h8.231c0.69,0,1.25-0.56,1.25-1.25s-0.56-1.25-1.25-1.25h-8.231
		v-2.612h8.231c0.69,0,1.25-0.56,1.25-1.25s-0.56-1.25-1.25-1.25h-8.231V10.14h8.231c0.69,0,1.25-0.56,1.25-1.25
		s-0.56-1.25-1.25-1.25h-8.231V6.028c0-0.724,0.533-1.313,1.188-1.313h7.229c0.69,0,1.25-0.56,1.25-1.25s-0.56-1.25-1.25-1.25
		h-7.229c-2.034,0-3.688,1.711-3.688,3.813v31.285c0,2.104,1.654,3.814,3.688,3.814h7.229c0.69,0,1.25-0.56,1.25-1.25
		S41.473,38.627,40.783,38.627z"/>
</g>
</svg>
