<?xml version="1.0" encoding="utf-8"?>
<!-- Generator: Adobe Illustrator 17.0.0, SVG Export Plug-In . SVG Version: 6.00 Build 0)  -->
<!DOCTYPE svg PUBLIC "-//W3C//DTD SVG 1.1//EN" "http://www.w3.org/Graphics/SVG/1.1/DTD/svg11.dtd">
<svg version="1.1" id="图层_1" xmlns="http://www.w3.org/2000/svg" xmlns:xlink="http://www.w3.org/1999/xlink" x="0px" y="0px"
	 width="45.354px" height="45.354px" viewBox="-0.761 0 45.354 45.354" enable-background="new -0.761 0 45.354 45.354"
	 xml:space="preserve">
<path fill="#843232" d="M41.759,4.03H9.56c-3.783,0-6.861,3.078-6.861,6.861v24.649c-0.02,0.209-0.032,0.421-0.032,0.636
	c0,3.634,2.957,6.591,6.591,6.591H9.56h31.321h1.28L41.759,4.03z M13.776,6.53h8.882v15.386l-4.761-2.184l-4.121,2.019V6.53z
	 M9.56,6.53h1.716v19.229l6.656-3.261l7.226,3.314V6.53h14.126l0.24,23.055H9.258c-1.531,0-2.939,0.53-4.059,1.409V10.89
	C5.199,8.486,7.155,6.53,9.56,6.53z M9.56,40.266c-2.405,0-4.361-1.956-4.361-4.36v-0.049c0.166-2.105,1.912-3.772,4.059-3.772
	H39.55l0.085,8.182H9.56z"/>
</svg>
