<?xml version="1.0" encoding="utf-8"?>
<!-- Generator: Adobe Illustrator 17.0.0, SVG Export Plug-In . SVG Version: 6.00 Build 0)  -->
<!DOCTYPE svg PUBLIC "-//W3C//DTD SVG 1.1//EN" "http://www.w3.org/Graphics/SVG/1.1/DTD/svg11.dtd">
<svg version="1.1" id="图层_1" xmlns="http://www.w3.org/2000/svg" xmlns:xlink="http://www.w3.org/1999/xlink" x="0px" y="0px"
	 width="47.5px" height="45.354px" viewBox="0 0 47.5 45.354" enable-background="new 0 0 47.5 45.354" xml:space="preserve">
<path fill="#464646" d="M23.896,39.981c-14.706,0-14.706-2.136-14.706-2.94V20.673l-1.602,0.842L0.51,10.302l13.694-7.314h4.825
	v1.25c0,2.572,2,4.665,4.458,4.665s4.459-2.093,4.459-4.665v-1.25h5.641l13.604,7.266L41.312,21.43l-2.711-1.02v16.631
	C38.602,37.845,38.602,39.981,23.896,39.981z M11.69,36.456c1.258,0.419,5.43,1.025,12.206,1.025s10.948-0.606,12.206-1.025V16.797
	l4.026,1.515l3.695-7.023L32.961,5.488h-2.621c-0.576,3.357-3.43,5.915-6.853,5.915c-3.423,0-6.276-2.558-6.853-5.915H14.83
	L4.059,11.241l4.41,6.987l3.221-1.693V36.456z"/>
</svg>
