<?xml version="1.0" encoding="utf-8"?>
<!-- Generator: Adobe Illustrator 17.0.0, SVG Export Plug-In . SVG Version: 6.00 Build 0)  -->
<!DOCTYPE svg PUBLIC "-//W3C//DTD SVG 1.1//EN" "http://www.w3.org/Graphics/SVG/1.1/DTD/svg11.dtd">
<svg version="1.1" id="图层_1" xmlns="http://www.w3.org/2000/svg" xmlns:xlink="http://www.w3.org/1999/xlink" x="0px" y="0px"
	 width="45.354px" height="45.354px" viewBox="-0.761 0 45.354 45.354" enable-background="new -0.761 0 45.354 45.354"
	 xml:space="preserve">
<g>
	<path fill="#272636" d="M30.514,42.604H14.109c-2.673,0-4.848-2.175-4.848-4.848V23.683h10.451v-0.151
		c-2.09,0.173-4.18-0.112-6.209-0.829c-2.067-0.729-4.067-1.911-5.945-3.511c-1.364-1.162-2.473-2.638-3.297-4.387
		c-0.634-1.347-1.1-2.856-1.384-4.486C2.411,7.643,2.583,5.542,2.604,5.311l0.152-1.633L4.342,3.27
		c0.042-0.011,1.261-0.33,3.163-0.33c2.504,0,6.313,0.55,10.243,3.169c1.669,1.113,3.038,2.62,4.07,4.479
		c0.06,0.107,0.118,0.216,0.176,0.326c1.599-3.227,3.505-5.367,5.678-6.37c2.976-1.373,6.096-1.662,8.188-1.662
		c1.806,0,3.044,0.211,3.096,0.22l1.701,0.293l0.213,1.715c0.084,0.697,0.698,6.893-3.224,11.328
		c-2.894,3.273-7.306,4.628-13.274,3.95v3.292h10.991v14.073C35.363,40.429,33.188,42.604,30.514,42.604z M11.761,26.183v11.573
		c0,1.295,1.053,2.348,2.348,2.348h16.405c1.295,0,2.349-1.053,2.349-2.348V26.183H11.761z M5.084,5.664
		C5.053,6.125,4.977,7.809,5.34,9.888c0.246,1.411,0.644,2.707,1.183,3.851c0.671,1.425,1.565,2.619,2.656,3.549
		c1.645,1.401,3.379,2.43,5.156,3.057c2.099,0.74,4.276,0.924,6.4,0.532l1.137-0.211v-2.727l-0.04,0.105l-1.07-3.533
		c-0.297-0.982-0.678-1.894-1.13-2.71c-0.836-1.507-1.937-2.722-3.271-3.612C10.995,4.613,5.912,5.489,5.084,5.664z M22.031,17.515
		l1.29,0.208c5.753,0.927,9.925-0.08,12.452-2.938c3.016-3.412,2.712-8.348,2.629-9.237c-0.328-0.047-1.271-0.164-2.542-0.164
		c-1.843,0-4.577,0.249-7.142,1.432c-1.837,0.848-3.501,2.932-4.945,6.193c-0.243,0.548-0.457,1.081-0.645,1.58L22.031,17.515z"/>
</g>
</svg>
