<?xml version="1.0" encoding="utf-8"?>
<!-- Generator: Adobe Illustrator 17.0.0, SVG Export Plug-In . SVG Version: 6.00 Build 0)  -->
<!DOCTYPE svg PUBLIC "-//W3C//DTD SVG 1.1//EN" "http://www.w3.org/Graphics/SVG/1.1/DTD/svg11.dtd">
<svg version="1.1" id="图层_1" xmlns="http://www.w3.org/2000/svg" xmlns:xlink="http://www.w3.org/1999/xlink" x="0px" y="0px"
	 width="45.354px" height="45.354px" viewBox="-0.099 -0.662 45.354 45.354" enable-background="new -0.099 -0.662 45.354 45.354"
	 xml:space="preserve">
<path fill="#272636" d="M45.255,42.177H0.334l-0.054-2.5h5.928V6.428c0-1.494,1.197-2.691,2.668-2.691l20.52,0.041
	c1.265,0.207,2.234,1.308,2.236,2.631v33.269h2.271V27.22c0.041-1.774,1.459-3.161,3.162-3.161s3.121,1.386,3.162,3.09v12.528h4.962
	L45.255,42.177z M36.404,39.677h1.324V27.24c-0.008-0.396-0.299-0.681-0.662-0.681c-0.356,0-0.654,0.292-0.662,0.65V39.677z
	 M8.709,39.677h20.424V6.413c0-0.095-0.075-0.17-0.167-0.17L8.888,6.237c-0.096,0.004-0.18,0.074-0.18,0.168V39.677z M23.993,31.061
	h-1.557c-1.575,0-2.856-1.28-2.856-2.854v-4.423c0-1.575,1.281-2.857,2.856-2.857h1.557c1.575,0,2.857,1.282,2.857,2.857v4.423
	C26.851,29.781,25.569,31.061,23.993,31.061z M22.437,23.426c-0.193,0-0.356,0.164-0.356,0.357v4.423
	c0,0.192,0.163,0.354,0.356,0.354h1.557c0.193,0,0.357-0.162,0.357-0.354v-4.423c0-0.193-0.164-0.357-0.357-0.357H22.437z
	 M15.406,31.061h-1.561c-1.574,0-2.854-1.28-2.854-2.854v-4.423c0-1.575,1.28-2.857,2.854-2.857h1.561
	c1.576,0,2.857,1.282,2.857,2.857v4.423C18.263,29.781,16.982,31.061,15.406,31.061z M13.845,23.426
	c-0.192,0-0.354,0.164-0.354,0.357v4.423c0,0.192,0.162,0.354,0.354,0.354h1.561c0.194,0,0.357-0.162,0.357-0.354v-4.423
	c0-0.193-0.164-0.357-0.357-0.357H13.845z M23.998,19.609H22.44c-1.576,0-2.857-1.281-2.857-2.855v-4.419
	c0-1.575,1.282-2.856,2.857-2.856h1.559c1.575,0,2.857,1.281,2.857,2.856v4.419C26.856,18.328,25.573,19.609,23.998,19.609z
	 M22.44,11.978c-0.194,0-0.357,0.163-0.357,0.356v4.419c0,0.193,0.164,0.356,0.357,0.356h1.559c0.193,0,0.357-0.163,0.357-0.356
	v-4.419c0-0.193-0.164-0.356-0.357-0.356H22.44z M15.407,19.603H13.85c-1.576,0-2.858-1.282-2.858-2.858v-4.419
	c0-1.576,1.282-2.857,2.858-2.857h1.557c1.575,0,2.856,1.282,2.856,2.857v4.419C18.263,18.321,16.982,19.603,15.407,19.603z
	 M13.85,11.969c-0.194,0-0.358,0.164-0.358,0.357v4.419c0,0.194,0.164,0.357,0.358,0.357h1.557c0.193,0,0.356-0.164,0.356-0.357
	v-4.419c0-0.194-0.163-0.357-0.356-0.357H13.85z"/>
</svg>
